<svg width="1900" height="1901" viewBox="0 0 1900 1901" fill="none" xmlns="http://www.w3.org/2000/svg">
<mask id="path-1-inside-1_13_24" fill="white">
<path d="M0 950.631C0 1202.59 100.089 1444.22 278.249 1622.38C456.408 1800.54 698.044 1900.63 950 1900.63C1201.96 1900.63 1443.59 1800.54 1621.75 1622.38C1799.91 1444.22 1900 1202.59 1900 950.631L950 950.631H0Z"/>
</mask>
<path d="M0 950.631C0 1202.59 100.089 1444.22 278.249 1622.38C456.408 1800.54 698.044 1900.63 950 1900.63C1201.96 1900.63 1443.59 1800.54 1621.75 1622.38C1799.91 1444.22 1900 1202.59 1900 950.631L950 950.631H0Z" fill="white" stroke="black" stroke-width="90" mask="url(#path-1-inside-1_13_24)"/>
<mask id="path-2-inside-2_13_24" fill="white">
<path d="M1900 950.631C1900 698.675 1799.91 457.039 1621.75 278.879C1443.59 100.72 1201.96 0.630878 950 0.630859C698.044 0.63084 456.408 100.72 278.249 278.879C100.089 457.039 3.80443e-05 698.675 0 950.631L950 950.631H1900Z"/>
</mask>
<path d="M1900 950.631C1900 698.675 1799.91 457.039 1621.75 278.879C1443.59 100.72 1201.96 0.630878 950 0.630859C698.044 0.63084 456.408 100.72 278.249 278.879C100.089 457.039 3.80443e-05 698.675 0 950.631L950 950.631H1900Z" fill="white" stroke="black" stroke-width="90" mask="url(#path-2-inside-2_13_24)"/>
<circle cx="950" cy="950.631" r="200" fill="black" stroke="black" stroke-width="15"/>
<circle cx="950" cy="950.631" r="150" fill="white" stroke="black" stroke-width="15"/>
<circle cx="949.5" cy="950.131" r="112.5" fill="white" stroke="black" stroke-width="10"/>
</svg>
