<svg width="1920" height="1920" viewBox="0 0 1920 1920" fill="none" xmlns="http://www.w3.org/2000/svg">
<mask id="path-1-inside-1_1_2" fill="white">
<path d="M10 960C10 1211.96 110.089 1453.59 288.249 1631.75C466.408 1809.91 708.044 1910 960 1910C1211.96 1910 1453.59 1809.91 1631.75 1631.75C1809.91 1453.59 1910 1211.96 1910 960L960 960H10Z"/>
</mask>
<g filter="url(#filter0_i_1_2)">
<path d="M10 960C10 1211.96 110.089 1453.59 288.249 1631.75C466.408 1809.91 708.044 1910 960 1910C1211.96 1910 1453.59 1809.91 1631.75 1631.75C1809.91 1453.59 1910 1211.96 1910 960L960 960H10Z" fill="white"/>
</g>
<path d="M10 960C10 1211.96 110.089 1453.59 288.249 1631.75C466.408 1809.91 708.044 1910 960 1910C1211.96 1910 1453.59 1809.91 1631.75 1631.75C1809.91 1453.59 1910 1211.96 1910 960L960 960H10Z" stroke="black" stroke-width="90" mask="url(#path-1-inside-1_1_2)"/>
<mask id="path-2-inside-2_1_2" fill="white">
<path d="M1910 960C1910 708.044 1809.91 466.408 1631.75 288.249C1453.59 110.089 1211.96 10 960 10C708.044 9.99998 466.408 110.089 288.249 288.248C110.089 466.408 10 708.044 10 960L960 960H1910Z"/>
</mask>
<g filter="url(#filter1_i_1_2)">
<path d="M1910 960C1910 708.044 1809.91 466.408 1631.75 288.249C1453.59 110.089 1211.96 10 960 10C708.044 9.99998 466.408 110.089 288.249 288.248C110.089 466.408 10 708.044 10 960L960 960H1910Z" fill="#FB1B1B"/>
</g>
<path d="M1910 960C1910 708.044 1809.91 466.408 1631.75 288.249C1453.59 110.089 1211.96 10 960 10C708.044 9.99998 466.408 110.089 288.249 288.248C110.089 466.408 10 708.044 10 960L960 960H1910Z" stroke="black" stroke-width="90" mask="url(#path-2-inside-2_1_2)"/>
<circle cx="960" cy="960" r="200" fill="black" stroke="black" stroke-width="15"/>
<circle cx="960" cy="960" r="150" fill="white" stroke="black" stroke-width="15"/>
<circle cx="959.5" cy="959.5" r="112.5" fill="white" stroke="black" stroke-width="10"/>
<g filter="url(#filter2_d_1_2)">
<path d="M1508.89 51.4787L1564.18 261.498C1566.73 271.168 1576.03 277.472 1585.95 276.258L1801.52 249.89L1591.5 305.183C1581.83 307.729 1575.53 317.026 1576.74 326.952L1603.11 542.521L1547.82 332.502C1545.27 322.832 1535.97 316.528 1526.05 317.742L1310.48 344.11L1520.5 288.817C1530.17 286.271 1536.47 276.974 1535.26 267.048L1508.89 51.4787Z" fill="#FFCB05"/>
<path d="M1540.22 266.441L1522.79 123.895L1559.35 262.771C1562.53 274.859 1574.15 282.739 1586.56 281.221L1729.11 263.785L1590.23 300.348C1578.14 303.53 1570.26 315.152 1571.78 327.559L1589.21 470.105L1552.65 331.229C1549.47 319.141 1537.85 311.261 1525.44 312.779L1382.89 330.215L1521.77 293.652C1533.86 290.47 1541.74 278.848 1540.22 266.441Z" stroke="#2A75BB" stroke-width="10"/>
</g>
<defs>
<filter id="filter0_i_1_2" x="10" y="960" width="1900" height="950" filterUnits="userSpaceOnUse" color-interpolation-filters="sRGB">
<feFlood flood-opacity="0" result="BackgroundImageFix"/>
<feBlend mode="normal" in="SourceGraphic" in2="BackgroundImageFix" result="shape"/>
<feColorMatrix in="SourceAlpha" type="matrix" values="0 0 0 0 0 0 0 0 0 0 0 0 0 0 0 0 0 0 127 0" result="hardAlpha"/>
<feMorphology radius="61" operator="dilate" in="SourceAlpha" result="effect1_innerShadow_1_2"/>
<feOffset dx="231" dy="-359"/>
<feGaussianBlur stdDeviation="15"/>
<feComposite in2="hardAlpha" operator="arithmetic" k2="-1" k3="1"/>
<feColorMatrix type="matrix" values="0 0 0 0 0 0 0 0 0 0 0 0 0 0 0 0 0 0 0.25 0"/>
<feBlend mode="normal" in2="shape" result="effect1_innerShadow_1_2"/>
</filter>
<filter id="filter1_i_1_2" x="10" y="10" width="1951" height="950" filterUnits="userSpaceOnUse" color-interpolation-filters="sRGB">
<feFlood flood-opacity="0" result="BackgroundImageFix"/>
<feBlend mode="normal" in="SourceGraphic" in2="BackgroundImageFix" result="shape"/>
<feColorMatrix in="SourceAlpha" type="matrix" values="0 0 0 0 0 0 0 0 0 0 0 0 0 0 0 0 0 0 127 0" result="hardAlpha"/>
<feMorphology radius="61" operator="erode" in="SourceAlpha" result="effect1_innerShadow_1_2"/>
<feOffset dx="51"/>
<feGaussianBlur stdDeviation="15"/>
<feComposite in2="hardAlpha" operator="arithmetic" k2="-1" k3="1"/>
<feColorMatrix type="matrix" values="0 0 0 0 0 0 0 0 0 0 0 0 0 0 0 0 0 0 0.25 0"/>
<feBlend mode="normal" in2="shape" result="effect1_innerShadow_1_2"/>
</filter>
<filter id="filter2_d_1_2" x="1172.48" y="51.4788" width="629.042" height="622.042" filterUnits="userSpaceOnUse" color-interpolation-filters="sRGB">
<feFlood flood-opacity="0" result="BackgroundImageFix"/>
<feColorMatrix in="SourceAlpha" type="matrix" values="0 0 0 0 0 0 0 0 0 0 0 0 0 0 0 0 0 0 127 0" result="hardAlpha"/>
<feOffset dx="-108" dy="101"/>
<feGaussianBlur stdDeviation="15"/>
<feComposite in2="hardAlpha" operator="out"/>
<feColorMatrix type="matrix" values="0 0 0 0 0 0 0 0 0 0 0 0 0 0 0 0 0 0 0.25 0"/>
<feBlend mode="normal" in2="BackgroundImageFix" result="effect1_dropShadow_1_2"/>
<feBlend mode="normal" in="SourceGraphic" in2="effect1_dropShadow_1_2" result="shape"/>
</filter>
</defs>
</svg>
